<?xml version="1.0" encoding="UTF-8" standalone="no"?>
<!DOCTYPE svg PUBLIC "-//W3C//DTD SVG 1.1//EN"
 "http://www.w3.org/Graphics/SVG/1.1/DTD/svg11.dtd">
<!-- Generated by graphviz version 2.44.1 (20200629.0846)
 -->
<!-- Title: decision_tree Pages: 1 -->
<svg width="3870pt" height="1025pt"
 viewBox="0.00 0.00 3869.88 1025.40" xmlns="http://www.w3.org/2000/svg" xmlns:xlink="http://www.w3.org/1999/xlink">
<g id="graph0" class="graph" transform="scale(1 1) rotate(0) translate(4 1021.4)">
<title>decision_tree</title>
<polygon fill="white" stroke="transparent" points="-4,4 -4,-1021.4 3865.88,-1021.4 3865.88,4 -4,4"/>
<!-- /contest/2 -->
<g id="node1" class="node">
<title>/contest/2</title>
<ellipse fill="none" stroke="black" cx="2760.93" cy="-885.79" rx="183.7" ry="26.74"/>
<text text-anchor="middle" x="2760.93" y="-889.59" font-family="Times,serif" font-size="14.00">/contest/2</text>
<text text-anchor="middle" x="2760.93" y="-874.59" font-family="Times,serif" font-size="14.00">Have you received a written eviction notice?</text>
</g>
<!-- /contest/3 -->
<g id="node2" class="node">
<title>/contest/3</title>
<ellipse fill="none" stroke="black" cx="2760.93" cy="-742.31" rx="116.85" ry="26.74"/>
<text text-anchor="middle" x="2760.93" y="-746.11" font-family="Times,serif" font-size="14.00">/contest/3</text>
<text text-anchor="middle" x="2760.93" y="-731.11" font-family="Times,serif" font-size="14.00">Was it on the proper form?</text>
</g>
<!-- /contest/2&#45;&gt;/contest/3 -->
<g id="edge1" class="edge">
<title>/contest/2&#45;&gt;/contest/3</title>
<path fill="none" stroke="black" d="M2760.93,-858.84C2760.93,-836.64 2760.93,-804.45 2760.93,-779.68"/>
<polygon fill="black" stroke="black" points="2764.43,-779.57 2760.93,-769.58 2757.43,-779.58 2764.43,-779.57"/>
<text text-anchor="middle" x="2771.43" y="-810.35" font-family="Times,serif" font-size="14.00">Yes</text>
</g>
<!-- /contest/5 -->
<g id="node3" class="node">
<title>/contest/5</title>
<ellipse fill="none" stroke="black" cx="3518.93" cy="-428.09" rx="342.89" ry="26.74"/>
<text text-anchor="middle" x="3518.93" y="-431.89" font-family="Times,serif" font-size="14.00">/contest/5</text>
<text text-anchor="middle" x="3518.93" y="-416.89" font-family="Times,serif" font-size="14.00">Has your landlord tried to change your locks, threaten you, or harass you in any way?</text>
</g>
<!-- /contest/2&#45;&gt;/contest/5 -->
<g id="edge2" class="edge">
<title>/contest/2&#45;&gt;/contest/5</title>
<path fill="none" stroke="black" d="M2899.62,-868.12C3031.52,-848.28 3209.93,-809.26 3209.93,-743.31 3209.93,-743.31 3209.93,-743.31 3209.93,-531.83 3209.93,-496.53 3283.48,-471.22 3358.81,-454.55"/>
<polygon fill="black" stroke="black" points="3359.92,-457.89 3368.96,-452.36 3358.45,-451.05 3359.92,-457.89"/>
<text text-anchor="middle" x="3218.43" y="-633.87" font-family="Times,serif" font-size="14.00">No</text>
</g>
<!-- /contest/6 -->
<g id="node4" class="node">
<title>/contest/6</title>
<ellipse fill="none" stroke="black" cx="2854.93" cy="-428.09" rx="302.78" ry="26.74"/>
<text text-anchor="middle" x="2854.93" y="-431.89" font-family="Times,serif" font-size="14.00">/contest/6</text>
<text text-anchor="middle" x="2854.93" y="-416.89" font-family="Times,serif" font-size="14.00">Your notice is likely not lawful. Take some time to learn about your rights.</text>
</g>
<!-- /contest/3&#45;&gt;/contest/6 -->
<g id="edge4" class="edge">
<title>/contest/3&#45;&gt;/contest/6</title>
<path fill="none" stroke="black" d="M2774.5,-715.45C2789.22,-686.35 2812.43,-637.31 2825.93,-592.7 2838.9,-549.85 2846.81,-498.82 2851.02,-465.28"/>
<polygon fill="black" stroke="black" points="2854.53,-465.39 2852.26,-455.04 2847.58,-464.54 2854.53,-465.39"/>
<text text-anchor="middle" x="2839.43" y="-581.5" font-family="Times,serif" font-size="14.00">No</text>
</g>
<!-- /contest/30 -->
<g id="node9" class="node">
<title>/contest/30</title>
<ellipse fill="none" stroke="black" cx="2294.93" cy="-637.57" rx="164.1" ry="26.74"/>
<text text-anchor="middle" x="2294.93" y="-641.37" font-family="Times,serif" font-size="14.00">/contest/30</text>
<text text-anchor="middle" x="2294.93" y="-626.37" font-family="Times,serif" font-size="14.00">What was the reason for your eviction?</text>
</g>
<!-- /contest/3&#45;&gt;/contest/30 -->
<g id="edge3" class="edge">
<title>/contest/3&#45;&gt;/contest/30</title>
<path fill="none" stroke="black" d="M2678.7,-723.18C2601.03,-706.06 2484.21,-680.3 2399.86,-661.7"/>
<polygon fill="black" stroke="black" points="2400.52,-658.27 2390,-659.53 2399.01,-665.1 2400.52,-658.27"/>
<text text-anchor="middle" x="2566.43" y="-686.24" font-family="Times,serif" font-size="14.00">Yes</text>
</g>
<!-- /contest/fletter/evc_protect -->
<g id="node21" class="node">
<title>/contest/fletter/evc_protect</title>
<ellipse fill="none" stroke="black" cx="3188.93" cy="-323.35" rx="104.78" ry="18"/>
<text text-anchor="middle" x="3188.93" y="-319.65" font-family="Times,serif" font-size="14.00">/contest/fletter/evc_protect</text>
</g>
<!-- /contest/5&#45;&gt;/contest/fletter/evc_protect -->
<g id="edge5" class="edge">
<title>/contest/5&#45;&gt;/contest/fletter/evc_protect</title>
<path fill="none" stroke="black" d="M3342.65,-404.96C3319.09,-399.29 3295.6,-392.16 3273.93,-383.22 3270.92,-381.98 3243.9,-363.15 3221.12,-347.12"/>
<polygon fill="black" stroke="black" points="3222.85,-344.05 3212.66,-341.15 3218.82,-349.77 3222.85,-344.05"/>
<text text-anchor="middle" x="3400.43" y="-372.02" font-family="Times,serif" font-size="14.00">No, but I think my landlord wants to evict me</text>
</g>
<!-- /contest/fletter/arb -->
<g id="node22" class="node">
<title>/contest/fletter/arb</title>
<ellipse fill="none" stroke="black" cx="2959.93" cy="-113.87" rx="74.99" ry="18"/>
<text text-anchor="middle" x="2959.93" y="-110.17" font-family="Times,serif" font-size="14.00">/contest/fletter/arb</text>
</g>
<!-- /contest/5&#45;&gt;/contest/fletter/arb -->
<g id="edge6" class="edge">
<title>/contest/5&#45;&gt;/contest/fletter/arb</title>
<path fill="none" stroke="black" d="M3529.72,-401.07C3532.49,-390.17 3533.16,-377.83 3526.93,-368.22 3417.27,-199.11 3165.43,-141.88 3037.52,-123.31"/>
<polygon fill="black" stroke="black" points="3037.8,-119.82 3027.41,-121.89 3036.82,-126.75 3037.8,-119.82"/>
<text text-anchor="middle" x="3577.43" y="-267.28" font-family="Times,serif" font-size="14.00">Yes, I need to speak with an advocate right away!</text>
</g>
<!-- /contest/6&#45;&gt;/contest/fletter/evc_protect -->
<g id="edge7" class="edge">
<title>/contest/6&#45;&gt;/contest/fletter/evc_protect</title>
<path fill="none" stroke="black" d="M3004.07,-404.68C3025.96,-399.03 3047.87,-391.98 3067.93,-383.22 3078.45,-378.63 3078.96,-373.89 3088.93,-368.22 3104.64,-359.29 3122.51,-350.93 3138.76,-343.95"/>
<polygon fill="black" stroke="black" points="3140.25,-347.12 3148.11,-340.01 3137.53,-340.67 3140.25,-347.12"/>
<text text-anchor="middle" x="3168.93" y="-372.02" font-family="Times,serif" font-size="14.00">Next step: Know your rights!</text>
</g>
<!-- /contest/fletter/evc_arb_technical_form -->
<g id="node23" class="node">
<title>/contest/fletter/evc_arb_technical_form</title>
<ellipse fill="none" stroke="black" cx="2831.93" cy="-323.35" rx="149.47" ry="18"/>
<text text-anchor="middle" x="2831.93" y="-319.65" font-family="Times,serif" font-size="14.00">/contest/fletter/evc_arb_technical_form</text>
</g>
<!-- /contest/6&#45;&gt;/contest/fletter/evc_arb_technical_form -->
<g id="edge8" class="edge">
<title>/contest/6&#45;&gt;/contest/fletter/evc_arb_technical_form</title>
<path fill="none" stroke="black" d="M2839.44,-400.91C2836.78,-395.25 2834.4,-389.18 2832.93,-383.22 2830.45,-373.09 2829.78,-361.68 2829.88,-351.61"/>
<polygon fill="black" stroke="black" points="2833.39,-351.47 2830.25,-341.35 2826.4,-351.22 2833.39,-351.47"/>
<text text-anchor="middle" x="2950.43" y="-372.02" font-family="Times,serif" font-size="14.00">Next Step: Write a Letter to Your Landlord</text>
</g>
<!-- /contest/7 -->
<g id="node5" class="node">
<title>/contest/7</title>
<ellipse fill="none" stroke="black" cx="1253.93" cy="-428.09" rx="287.59" ry="26.74"/>
<text text-anchor="middle" x="1253.93" y="-431.89" font-family="Times,serif" font-size="14.00">/contest/7</text>
<text text-anchor="middle" x="1253.93" y="-416.89" font-family="Times,serif" font-size="14.00">Have more than 5 days passed since you received your eviction notice?</text>
</g>
<!-- /contest/34 -->
<g id="node13" class="node">
<title>/contest/34</title>
<ellipse fill="none" stroke="black" cx="1561.93" cy="-323.35" rx="287.59" ry="26.74"/>
<text text-anchor="middle" x="1561.93" y="-327.15" font-family="Times,serif" font-size="14.00">/contest/34</text>
<text text-anchor="middle" x="1561.93" y="-312.15" font-family="Times,serif" font-size="14.00">It seems like you probably missed the window to contest your eviction.</text>
</g>
<!-- /contest/7&#45;&gt;/contest/34 -->
<g id="edge9" class="edge">
<title>/contest/7&#45;&gt;/contest/34</title>
<path fill="none" stroke="black" d="M1328.89,-402.09C1373.69,-387.14 1430.74,-368.11 1477.17,-352.62"/>
<polygon fill="black" stroke="black" points="1478.54,-355.86 1486.91,-349.37 1476.32,-349.22 1478.54,-355.86"/>
<text text-anchor="middle" x="1437.43" y="-372.02" font-family="Times,serif" font-size="14.00">Yes</text>
</g>
<!-- /contest/38 -->
<g id="node17" class="node">
<title>/contest/38</title>
<ellipse fill="none" stroke="black" cx="301.93" cy="-323.35" rx="301.87" ry="26.74"/>
<text text-anchor="middle" x="301.93" y="-327.15" font-family="Times,serif" font-size="14.00">/contest/38</text>
<text text-anchor="middle" x="301.93" y="-312.15" font-family="Times,serif" font-size="14.00">Are you able to pay your rent in full within 5 days of receiving this notice?</text>
</g>
<!-- /contest/7&#45;&gt;/contest/38 -->
<g id="edge10" class="edge">
<title>/contest/7&#45;&gt;/contest/38</title>
<path fill="none" stroke="black" d="M1070.94,-407.34C906.91,-389.64 666.9,-363.74 498.77,-345.59"/>
<polygon fill="black" stroke="black" points="499.12,-342.11 488.81,-344.52 498.37,-349.07 499.12,-342.11"/>
<text text-anchor="middle" x="843.43" y="-372.02" font-family="Times,serif" font-size="14.00">No</text>
</g>
<!-- /contest/8 -->
<g id="node6" class="node">
<title>/contest/8</title>
<ellipse fill="none" stroke="black" cx="1798.93" cy="-428.09" rx="239" ry="26.74"/>
<text text-anchor="middle" x="1798.93" y="-431.89" font-family="Times,serif" font-size="14.00">/contest/8</text>
<text text-anchor="middle" x="1798.93" y="-416.89" font-family="Times,serif" font-size="14.00">Have more than 10 days passed since you received notice?</text>
</g>
<!-- /contest/8&#45;&gt;/contest/34 -->
<g id="edge12" class="edge">
<title>/contest/8&#45;&gt;/contest/34</title>
<path fill="none" stroke="black" d="M1740.96,-401.96C1707.37,-387.4 1664.91,-368.99 1629.78,-353.76"/>
<polygon fill="black" stroke="black" points="1631.11,-350.52 1620.55,-349.76 1628.33,-356.95 1631.11,-350.52"/>
<text text-anchor="middle" x="1705.43" y="-372.02" font-family="Times,serif" font-size="14.00">Yes</text>
</g>
<!-- /contest/35 -->
<g id="node14" class="node">
<title>/contest/35</title>
<ellipse fill="none" stroke="black" cx="865.93" cy="-323.35" rx="243.9" ry="26.74"/>
<text text-anchor="middle" x="865.93" y="-327.15" font-family="Times,serif" font-size="14.00">/contest/35</text>
<text text-anchor="middle" x="865.93" y="-312.15" font-family="Times,serif" font-size="14.00">Did your landlord indicate what specifically you did wrong?</text>
</g>
<!-- /contest/8&#45;&gt;/contest/35 -->
<g id="edge11" class="edge">
<title>/contest/8&#45;&gt;/contest/35</title>
<path fill="none" stroke="black" d="M1628.52,-409.19C1602.53,-406.5 1576.02,-403.77 1550.93,-401.22 1470.07,-393 1449.75,-391.95 1368.93,-383.22 1257.7,-371.21 1132.76,-356.59 1035.23,-344.93"/>
<polygon fill="black" stroke="black" points="1035.62,-341.45 1025.28,-343.74 1034.79,-348.4 1035.62,-341.45"/>
<text text-anchor="middle" x="1377.43" y="-372.02" font-family="Times,serif" font-size="14.00">No</text>
</g>
<!-- /contest/9 -->
<g id="node7" class="node">
<title>/contest/9</title>
<ellipse fill="none" stroke="black" cx="2294.93" cy="-428.09" rx="239" ry="26.74"/>
<text text-anchor="middle" x="2294.93" y="-431.89" font-family="Times,serif" font-size="14.00">/contest/9</text>
<text text-anchor="middle" x="2294.93" y="-416.89" font-family="Times,serif" font-size="14.00">Have more than 15 days passed since you received notice?</text>
</g>
<!-- /contest/9&#45;&gt;/contest/34 -->
<g id="edge13" class="edge">
<title>/contest/9&#45;&gt;/contest/34</title>
<path fill="none" stroke="black" d="M2149.68,-406.73C2027.87,-389.66 1853.96,-365.28 1726.92,-347.48"/>
<polygon fill="black" stroke="black" points="1727.1,-343.97 1716.71,-346.04 1726.13,-350.9 1727.1,-343.97"/>
<text text-anchor="middle" x="1983.43" y="-372.02" font-family="Times,serif" font-size="14.00">Yes</text>
</g>
<!-- /contest/44 -->
<g id="node20" class="node">
<title>/contest/44</title>
<ellipse fill="none" stroke="black" cx="2265.93" cy="-323.35" rx="398.2" ry="26.74"/>
<text text-anchor="middle" x="2265.93" y="-327.15" font-family="Times,serif" font-size="14.00">/contest/44</text>
<text text-anchor="middle" x="2265.93" y="-312.15" font-family="Times,serif" font-size="14.00">Do you have evidence that the reason your landlord gave for your eviction is &#160;misleading or untrue?</text>
</g>
<!-- /contest/9&#45;&gt;/contest/44 -->
<g id="edge14" class="edge">
<title>/contest/9&#45;&gt;/contest/44</title>
<path fill="none" stroke="black" d="M2287.62,-401.16C2284.11,-388.75 2279.86,-373.69 2276.06,-360.2"/>
<polygon fill="black" stroke="black" points="2279.34,-358.94 2273.25,-350.27 2272.6,-360.84 2279.34,-358.94"/>
<text text-anchor="middle" x="2291.43" y="-372.02" font-family="Times,serif" font-size="14.00">No</text>
</g>
<!-- /contest/29 -->
<g id="node8" class="node">
<title>/contest/29</title>
<ellipse fill="none" stroke="black" cx="2331.93" cy="-990.53" rx="260.43" ry="26.74"/>
<text text-anchor="middle" x="2331.93" y="-994.33" font-family="Times,serif" font-size="14.00">/contest/29</text>
<text text-anchor="middle" x="2331.93" y="-979.33" font-family="Times,serif" font-size="14.00">Is your living situation covered by the Residential Tenancy Act?</text>
</g>
<!-- /contest/29&#45;&gt;/contest/2 -->
<g id="edge15" class="edge">
<title>/contest/29&#45;&gt;/contest/2</title>
<path fill="none" stroke="black" d="M2431.43,-965.7C2499.5,-949.4 2589.49,-927.85 2658.23,-911.39"/>
<polygon fill="black" stroke="black" points="2659.3,-914.73 2668.21,-909 2657.67,-907.92 2659.3,-914.73"/>
<text text-anchor="middle" x="2583.43" y="-934.46" font-family="Times,serif" font-size="14.00">Yes</text>
</g>
<!-- /contest/43 -->
<g id="node19" class="node">
<title>/contest/43</title>
<ellipse fill="none" stroke="black" cx="1985.93" cy="-814.05" rx="357.59" ry="26.74"/>
<text text-anchor="middle" x="1985.93" y="-817.85" font-family="Times,serif" font-size="14.00">/contest/43</text>
<text text-anchor="middle" x="1985.93" y="-802.85" font-family="Times,serif" font-size="14.00">If you are not covered by the RTA you will find it hard (but not impossible) to fight back.</text>
</g>
<!-- /contest/29&#45;&gt;/contest/43 -->
<g id="edge16" class="edge">
<title>/contest/29&#45;&gt;/contest/43</title>
<path fill="none" stroke="black" d="M2281.62,-964.16C2219.15,-932.66 2112.7,-878.98 2046.01,-845.34"/>
<polygon fill="black" stroke="black" points="2047.38,-842.11 2036.87,-840.74 2044.22,-848.36 2047.38,-842.11"/>
<text text-anchor="middle" x="2297.93" y="-934.46" font-family="Times,serif" font-size="14.00">No, I don&#39;t think so</text>
</g>
<!-- /contest/31 -->
<g id="node10" class="node">
<title>/contest/31</title>
<ellipse fill="none" stroke="black" cx="1769.93" cy="-532.83" rx="192.17" ry="26.74"/>
<text text-anchor="middle" x="1769.93" y="-536.63" font-family="Times,serif" font-size="14.00">/contest/31</text>
<text text-anchor="middle" x="1769.93" y="-521.63" font-family="Times,serif" font-size="14.00">Were you given 10 Days Notice to Move Out?</text>
</g>
<!-- /contest/30&#45;&gt;/contest/31 -->
<g id="edge17" class="edge">
<title>/contest/30&#45;&gt;/contest/31</title>
<path fill="none" stroke="black" d="M2131.57,-634.89C2015.36,-631.22 1870.83,-620.86 1817.93,-592.7 1807.13,-586.95 1797.85,-577.63 1790.41,-568.09"/>
<polygon fill="black" stroke="black" points="1793.06,-565.77 1784.35,-559.72 1787.39,-569.88 1793.06,-565.77"/>
<text text-anchor="middle" x="1958.93" y="-581.5" font-family="Times,serif" font-size="14.00">I did not pay my rent or utilities in full and on time</text>
</g>
<!-- /contest/32 -->
<g id="node11" class="node">
<title>/contest/32</title>
<ellipse fill="none" stroke="black" cx="2119.93" cy="-532.83" rx="140.01" ry="26.74"/>
<text text-anchor="middle" x="2119.93" y="-536.63" font-family="Times,serif" font-size="14.00">/contest/32</text>
<text text-anchor="middle" x="2119.93" y="-521.63" font-family="Times,serif" font-size="14.00">Were you given 30 Days Notice?</text>
</g>
<!-- /contest/30&#45;&gt;/contest/32 -->
<g id="edge18" class="edge">
<title>/contest/30&#45;&gt;/contest/32</title>
<path fill="none" stroke="black" d="M2171.95,-619.59C2143.09,-613.01 2118.05,-604.21 2108.93,-592.7 2103.75,-586.15 2102.9,-577.92 2104.18,-569.7"/>
<polygon fill="black" stroke="black" points="2107.63,-570.34 2106.65,-559.79 2100.83,-568.65 2107.63,-570.34"/>
<text text-anchor="middle" x="2373.43" y="-581.5" font-family="Times,serif" font-size="14.00">The eviction is related to something I am alleged to have done (i.e issues with noise, guests, etc)</text>
</g>
<!-- /contest/33 -->
<g id="node12" class="node">
<title>/contest/33</title>
<ellipse fill="none" stroke="black" cx="2659.93" cy="-532.83" rx="140.01" ry="26.74"/>
<text text-anchor="middle" x="2659.93" y="-536.63" font-family="Times,serif" font-size="14.00">/contest/33</text>
<text text-anchor="middle" x="2659.93" y="-521.63" font-family="Times,serif" font-size="14.00">Were you given 60 Days Notice?</text>
</g>
<!-- /contest/30&#45;&gt;/contest/33 -->
<g id="edge19" class="edge">
<title>/contest/30&#45;&gt;/contest/33</title>
<path fill="none" stroke="black" d="M2455.36,-631.76C2530.31,-626.43 2609.29,-615.4 2637.93,-592.7 2645.34,-586.83 2650.26,-578.19 2653.52,-569.32"/>
<polygon fill="black" stroke="black" points="2656.87,-570.32 2656.44,-559.74 2650.18,-568.28 2656.87,-570.32"/>
<text text-anchor="middle" x="2735.93" y="-581.5" font-family="Times,serif" font-size="14.00">I am being evicted for &#39;no fault&#39;</text>
</g>
<!-- /contest/31&#45;&gt;/contest/6 -->
<g id="edge20" class="edge">
<title>/contest/31&#45;&gt;/contest/6</title>
<path fill="none" stroke="black" d="M1901.11,-513.11C1924.33,-510.32 1948.31,-507.78 1970.93,-505.96 2032.32,-501.02 2465.86,-505.36 2524.93,-487.96 2537.36,-484.3 2537.73,-477.3 2549.93,-472.96 2577.56,-463.14 2607.33,-455.51 2637.07,-449.59"/>
<polygon fill="black" stroke="black" points="2638,-452.97 2647.15,-447.64 2636.67,-446.1 2638,-452.97"/>
<text text-anchor="middle" x="2558.43" y="-476.76" font-family="Times,serif" font-size="14.00">No</text>
</g>
<!-- /contest/31&#45;&gt;/contest/7 -->
<g id="edge21" class="edge">
<title>/contest/31&#45;&gt;/contest/7</title>
<path fill="none" stroke="black" d="M1662.71,-510.48C1581.11,-494.23 1468.51,-471.81 1382.14,-454.62"/>
<polygon fill="black" stroke="black" points="1382.77,-451.17 1372.28,-452.65 1381.4,-458.04 1382.77,-451.17"/>
<text text-anchor="middle" x="1553.43" y="-476.76" font-family="Times,serif" font-size="14.00">Yes</text>
</g>
<!-- /contest/32&#45;&gt;/contest/6 -->
<g id="edge23" class="edge">
<title>/contest/32&#45;&gt;/contest/6</title>
<path fill="none" stroke="black" d="M2250.16,-522.89C2340.49,-515.77 2463.41,-504.29 2570.93,-487.96 2627.41,-479.39 2689.6,-466.85 2741.35,-455.55"/>
<polygon fill="black" stroke="black" points="2742.2,-458.94 2751.22,-453.38 2740.7,-452.11 2742.2,-458.94"/>
<text text-anchor="middle" x="2658.43" y="-476.76" font-family="Times,serif" font-size="14.00">No</text>
</g>
<!-- /contest/32&#45;&gt;/contest/8 -->
<g id="edge22" class="edge">
<title>/contest/32&#45;&gt;/contest/8</title>
<path fill="none" stroke="black" d="M2049.89,-509.41C2001.53,-493.94 1936.92,-473.25 1885.37,-456.75"/>
<polygon fill="black" stroke="black" points="1886.16,-453.33 1875.57,-453.62 1884.03,-460 1886.16,-453.33"/>
<text text-anchor="middle" x="1989.43" y="-476.76" font-family="Times,serif" font-size="14.00">Yes</text>
</g>
<!-- /contest/33&#45;&gt;/contest/6 -->
<g id="edge25" class="edge">
<title>/contest/33&#45;&gt;/contest/6</title>
<path fill="none" stroke="black" d="M2706.64,-507.22C2733.79,-492.92 2768.22,-474.78 2797.07,-459.58"/>
<polygon fill="black" stroke="black" points="2799.01,-462.51 2806.23,-454.75 2795.75,-456.32 2799.01,-462.51"/>
<text text-anchor="middle" x="2778.43" y="-476.76" font-family="Times,serif" font-size="14.00">No</text>
</g>
<!-- /contest/33&#45;&gt;/contest/9 -->
<g id="edge24" class="edge">
<title>/contest/33&#45;&gt;/contest/9</title>
<path fill="none" stroke="black" d="M2583.42,-510.29C2527.28,-494.49 2450.67,-472.93 2390.5,-455.99"/>
<polygon fill="black" stroke="black" points="2391.19,-452.55 2380.61,-453.21 2389.29,-459.29 2391.19,-452.55"/>
<text text-anchor="middle" x="2510.43" y="-476.76" font-family="Times,serif" font-size="14.00">Yes</text>
</g>
<!-- /contest/fletter/../landing -->
<g id="node24" class="node">
<title>/contest/fletter/../landing</title>
<ellipse fill="none" stroke="black" cx="1561.93" cy="-218.61" rx="96.68" ry="18"/>
<text text-anchor="middle" x="1561.93" y="-214.91" font-family="Times,serif" font-size="14.00">/contest/fletter/../landing</text>
</g>
<!-- /contest/34&#45;&gt;/contest/fletter/../landing -->
<g id="edge26" class="edge">
<title>/contest/34&#45;&gt;/contest/fletter/../landing</title>
<path fill="none" stroke="black" d="M1561.93,-296.42C1561.93,-281.4 1561.93,-262.5 1561.93,-247.21"/>
<polygon fill="black" stroke="black" points="1565.43,-246.81 1561.93,-236.81 1558.43,-246.81 1565.43,-246.81"/>
<text text-anchor="middle" x="1826.43" y="-267.28" font-family="Times,serif" font-size="14.00">Please take some time to report your landlord and sign a petition to help improve the law in B.C</text>
</g>
<!-- /contest/36 -->
<g id="node15" class="node">
<title>/contest/36</title>
<ellipse fill="none" stroke="black" cx="1211.93" cy="-218.61" rx="234.52" ry="26.74"/>
<text text-anchor="middle" x="1211.93" y="-222.41" font-family="Times,serif" font-size="14.00">/contest/36</text>
<text text-anchor="middle" x="1211.93" y="-207.41" font-family="Times,serif" font-size="14.00">Did your landlord give you a chance to address the issue?</text>
</g>
<!-- /contest/35&#45;&gt;/contest/36 -->
<g id="edge28" class="edge">
<title>/contest/35&#45;&gt;/contest/36</title>
<path fill="none" stroke="black" d="M947.93,-298C999.76,-282.61 1066.82,-262.7 1120.39,-246.79"/>
<polygon fill="black" stroke="black" points="1121.64,-250.07 1130.23,-243.87 1119.64,-243.36 1121.64,-250.07"/>
<text text-anchor="middle" x="1070.43" y="-267.28" font-family="Times,serif" font-size="14.00">Yes</text>
</g>
<!-- /contest/37 -->
<g id="node16" class="node">
<title>/contest/37</title>
<ellipse fill="none" stroke="black" cx="740.93" cy="-218.61" rx="212.26" ry="26.74"/>
<text text-anchor="middle" x="740.93" y="-222.41" font-family="Times,serif" font-size="14.00">/contest/37</text>
<text text-anchor="middle" x="740.93" y="-207.41" font-family="Times,serif" font-size="14.00">Did your landlord ever give &#160;you a formal warning?</text>
</g>
<!-- /contest/35&#45;&gt;/contest/37 -->
<g id="edge27" class="edge">
<title>/contest/35&#45;&gt;/contest/37</title>
<path fill="none" stroke="black" d="M834.71,-296.69C818.16,-283.08 797.66,-266.23 780.05,-251.76"/>
<polygon fill="black" stroke="black" points="782.14,-248.95 772.19,-245.3 777.69,-254.35 782.14,-248.95"/>
<text text-anchor="middle" x="819.43" y="-267.28" font-family="Times,serif" font-size="14.00">No</text>
</g>
<!-- /contest/39 -->
<g id="node18" class="node">
<title>/contest/39</title>
<ellipse fill="none" stroke="black" cx="1228.93" cy="-113.87" rx="247.47" ry="26.74"/>
<text text-anchor="middle" x="1228.93" y="-117.67" font-family="Times,serif" font-size="14.00">/contest/39</text>
<text text-anchor="middle" x="1228.93" y="-102.67" font-family="Times,serif" font-size="14.00">Do you have evidence to counter your landlord&#39;s allegations?</text>
</g>
<!-- /contest/36&#45;&gt;/contest/39 -->
<g id="edge30" class="edge">
<title>/contest/36&#45;&gt;/contest/39</title>
<path fill="none" stroke="black" d="M1216.22,-191.68C1218.28,-179.27 1220.77,-164.21 1223,-150.72"/>
<polygon fill="black" stroke="black" points="1226.47,-151.22 1224.65,-140.79 1219.56,-150.08 1226.47,-151.22"/>
<text text-anchor="middle" x="1230.43" y="-162.54" font-family="Times,serif" font-size="14.00">No</text>
</g>
<!-- /contest/36&#45;&gt;/contest/fletter/arb -->
<g id="edge29" class="edge">
<title>/contest/36&#45;&gt;/contest/fletter/arb</title>
<path fill="none" stroke="black" d="M1374.24,-199.15C1401.49,-196.41 1429.5,-193.82 1455.93,-191.74 1996.3,-149.32 2647.8,-125.19 2876.06,-117.55"/>
<polygon fill="black" stroke="black" points="2876.41,-121.04 2886.29,-117.21 2876.18,-114.04 2876.41,-121.04"/>
<text text-anchor="middle" x="1962.43" y="-162.54" font-family="Times,serif" font-size="14.00">Yes</text>
</g>
<!-- /contest/fletter/evc_substantive_cause -->
<g id="node25" class="node">
<title>/contest/fletter/evc_substantive_cause</title>
<ellipse fill="none" stroke="black" cx="355.93" cy="-113.87" rx="143.77" ry="18"/>
<text text-anchor="middle" x="355.93" y="-110.17" font-family="Times,serif" font-size="14.00">/contest/fletter/evc_substantive_cause</text>
</g>
<!-- /contest/37&#45;&gt;/contest/fletter/evc_substantive_cause -->
<g id="edge31" class="edge">
<title>/contest/37&#45;&gt;/contest/fletter/evc_substantive_cause</title>
<path fill="none" stroke="black" d="M652.61,-194.04C583.07,-175.48 487.57,-150 423.91,-133.01"/>
<polygon fill="black" stroke="black" points="424.54,-129.55 413.97,-130.36 422.73,-136.32 424.54,-129.55"/>
<text text-anchor="middle" x="582.43" y="-162.54" font-family="Times,serif" font-size="14.00">Yes</text>
</g>
<!-- /contest/fletter/evc_arb_substantive_cause_noissue_warning -->
<g id="node26" class="node">
<title>/contest/fletter/evc_arb_substantive_cause_noissue_warning</title>
<ellipse fill="none" stroke="black" cx="740.93" cy="-113.87" rx="222.86" ry="18"/>
<text text-anchor="middle" x="740.93" y="-110.17" font-family="Times,serif" font-size="14.00">/contest/fletter/evc_arb_substantive_cause_noissue_warning</text>
</g>
<!-- /contest/37&#45;&gt;/contest/fletter/evc_arb_substantive_cause_noissue_warning -->
<g id="edge32" class="edge">
<title>/contest/37&#45;&gt;/contest/fletter/evc_arb_substantive_cause_noissue_warning</title>
<path fill="none" stroke="black" d="M740.93,-191.68C740.93,-176.66 740.93,-157.76 740.93,-142.47"/>
<polygon fill="black" stroke="black" points="744.43,-142.07 740.93,-132.07 737.43,-142.07 744.43,-142.07"/>
<text text-anchor="middle" x="749.43" y="-162.54" font-family="Times,serif" font-size="14.00">No</text>
</g>
<!-- /contest/38&#45;&gt;/contest/fletter/../landing -->
<g id="edge33" class="edge">
<title>/contest/38&#45;&gt;/contest/fletter/../landing</title>
<path fill="none" stroke="black" d="M388.01,-297.52C436.33,-284.78 497.99,-270.49 553.93,-263.48 951.79,-213.6 1058.33,-297.33 1455.93,-245.48 1471.19,-243.49 1487.43,-240.16 1502.5,-236.54"/>
<polygon fill="black" stroke="black" points="1503.35,-239.94 1512.21,-234.13 1501.67,-233.14 1503.35,-239.94"/>
<text text-anchor="middle" x="673.43" y="-267.28" font-family="Times,serif" font-size="14.00">Yes, I should pay my landlord immediately</text>
</g>
<!-- /contest/fletter/evc_arb_substantive_rent -->
<g id="node27" class="node">
<title>/contest/fletter/evc_arb_substantive_rent</title>
<ellipse fill="none" stroke="black" cx="301.93" cy="-218.61" rx="153.27" ry="18"/>
<text text-anchor="middle" x="301.93" y="-214.91" font-family="Times,serif" font-size="14.00">/contest/fletter/evc_arb_substantive_rent</text>
</g>
<!-- /contest/38&#45;&gt;/contest/fletter/evc_arb_substantive_rent -->
<g id="edge34" class="edge">
<title>/contest/38&#45;&gt;/contest/fletter/evc_arb_substantive_rent</title>
<path fill="none" stroke="black" d="M301.93,-296.42C301.93,-281.4 301.93,-262.5 301.93,-247.21"/>
<polygon fill="black" stroke="black" points="305.43,-246.81 301.93,-236.81 298.43,-246.81 305.43,-246.81"/>
<text text-anchor="middle" x="372.93" y="-267.28" font-family="Times,serif" font-size="14.00">No, what are my options?</text>
</g>
<!-- /contest/fletter/evc_arb_substantive_cause_yesissue_no_warning -->
<g id="node28" class="node">
<title>/contest/fletter/evc_arb_substantive_cause_yesissue_no_warning</title>
<ellipse fill="none" stroke="black" cx="1228.93" cy="-18" rx="239.36" ry="18"/>
<text text-anchor="middle" x="1228.93" y="-14.3" font-family="Times,serif" font-size="14.00">/contest/fletter/evc_arb_substantive_cause_yesissue_no_warning</text>
</g>
<!-- /contest/39&#45;&gt;/contest/fletter/evc_arb_substantive_cause_yesissue_no_warning -->
<g id="edge35" class="edge">
<title>/contest/39&#45;&gt;/contest/fletter/evc_arb_substantive_cause_yesissue_no_warning</title>
<path fill="none" stroke="black" d="M1228.93,-86.97C1228.93,-74.34 1228.93,-59.14 1228.93,-46.32"/>
<polygon fill="black" stroke="black" points="1232.43,-46.22 1228.93,-36.22 1225.43,-46.22 1232.43,-46.22"/>
<text text-anchor="middle" x="1408.93" y="-57.8" font-family="Times,serif" font-size="14.00">Yes, I have a witness or evidence to support my version of events</text>
</g>
<!-- /contest/43&#45;&gt;/contest/fletter/../landing -->
<g id="edge36" class="edge">
<title>/contest/43&#45;&gt;/contest/fletter/../landing</title>
<path fill="none" stroke="black" d="M1648.21,-805.09C1341.89,-793.2 937.93,-763.72 937.93,-690.94 937.93,-690.94 937.93,-690.94 937.93,-479.46 937.93,-443.68 932.49,-427.35 956.93,-401.22 963.38,-394.33 1110,-353.27 1118.93,-350.22 1184.37,-327.89 1198.94,-317.11 1264.93,-296.48 1307.66,-283.12 1422.33,-254.17 1496.04,-235.85"/>
<polygon fill="black" stroke="black" points="1497.29,-239.15 1506.16,-233.34 1495.61,-232.35 1497.29,-239.15"/>
<text text-anchor="middle" x="967.93" y="-529.13" font-family="Times,serif" font-size="14.00">Next Steps</text>
</g>
<!-- /contest/44&#45;&gt;/contest/fletter/../landing -->
<g id="edge37" class="edge">
<title>/contest/44&#45;&gt;/contest/fletter/../landing</title>
<path fill="none" stroke="black" d="M2203.65,-296.71C2171.69,-284.64 2131.81,-271.22 2094.93,-263.48 1949.47,-232.95 1777.5,-223.45 1669.07,-220.62"/>
<polygon fill="black" stroke="black" points="1668.86,-217.11 1658.78,-220.36 1668.69,-224.11 1668.86,-217.11"/>
<text text-anchor="middle" x="2156.43" y="-267.28" font-family="Times,serif" font-size="14.00">No</text>
</g>
<!-- /contest/fletter/evc_arb_substantive_nofault -->
<g id="node29" class="node">
<title>/contest/fletter/evc_arb_substantive_nofault</title>
<ellipse fill="none" stroke="black" cx="2265.93" cy="-218.61" rx="164.37" ry="18"/>
<text text-anchor="middle" x="2265.93" y="-214.91" font-family="Times,serif" font-size="14.00">/contest/fletter/evc_arb_substantive_nofault</text>
</g>
<!-- /contest/44&#45;&gt;/contest/fletter/evc_arb_substantive_nofault -->
<g id="edge38" class="edge">
<title>/contest/44&#45;&gt;/contest/fletter/evc_arb_substantive_nofault</title>
<path fill="none" stroke="black" d="M2265.93,-296.42C2265.93,-281.4 2265.93,-262.5 2265.93,-247.21"/>
<polygon fill="black" stroke="black" points="2269.43,-246.81 2265.93,-236.81 2262.43,-246.81 2269.43,-246.81"/>
<text text-anchor="middle" x="2276.43" y="-267.28" font-family="Times,serif" font-size="14.00">Yes</text>
</g>
</g>
</svg>
