<?xml version="1.0" encoding="UTF-8" standalone="no"?>
<!DOCTYPE svg PUBLIC "-//W3C//DTD SVG 1.1//EN"
 "http://www.w3.org/Graphics/SVG/1.1/DTD/svg11.dtd">
<!-- Generated by graphviz version 2.44.1 (20200629.0846)
 -->
<!-- Title: decision_tree Pages: 1 -->
<svg width="3936pt" height="568pt"
 viewBox="0.00 0.00 3936.22 567.70" xmlns="http://www.w3.org/2000/svg" xmlns:xlink="http://www.w3.org/1999/xlink">
<g id="graph0" class="graph" transform="scale(1 1) rotate(0) translate(4 563.7)">
<title>decision_tree</title>
<polygon fill="white" stroke="transparent" points="-4,4 -4,-563.7 3932.22,-563.7 3932.22,4 -4,4"/>
<!-- /contest/14 -->
<g id="node1" class="node">
<title>/contest/14</title>
<ellipse fill="none" stroke="black" cx="2230.31" cy="-532.83" rx="402.19" ry="26.74"/>
<text text-anchor="middle" x="2230.31" y="-536.63" font-family="Times,serif" font-size="14.00">/contest/14</text>
<text text-anchor="middle" x="2230.31" y="-521.63" font-family="Times,serif" font-size="14.00">Did you and your landlord &#160;inspect your unit together when you moved in and when you moved out?</text>
</g>
<!-- /contest/15 -->
<g id="node2" class="node">
<title>/contest/15</title>
<ellipse fill="none" stroke="black" cx="1835.31" cy="-428.09" rx="306.35" ry="26.74"/>
<text text-anchor="middle" x="1835.31" y="-431.89" font-family="Times,serif" font-size="14.00">/contest/15</text>
<text text-anchor="middle" x="1835.31" y="-416.89" font-family="Times,serif" font-size="14.00">Did you agree in writing to give all or part of your deposit to your landlord?</text>
</g>
<!-- /contest/14&#45;&gt;/contest/15 -->
<g id="edge1" class="edge">
<title>/contest/14&#45;&gt;/contest/15</title>
<path fill="none" stroke="black" d="M2133.68,-506.7C2074.94,-491.42 1999.93,-471.91 1939.81,-456.27"/>
<polygon fill="black" stroke="black" points="1940.47,-452.83 1929.91,-453.7 1938.71,-459.6 1940.47,-452.83"/>
<text text-anchor="middle" x="2156.31" y="-476.76" font-family="Times,serif" font-size="14.00">Yes, we did inspect the unit together</text>
</g>
<!-- /contest/24 -->
<g id="node7" class="node">
<title>/contest/24</title>
<ellipse fill="none" stroke="black" cx="2862.31" cy="-323.35" rx="404.43" ry="26.74"/>
<text text-anchor="middle" x="2862.31" y="-327.15" font-family="Times,serif" font-size="14.00">/contest/24</text>
<text text-anchor="middle" x="2862.31" y="-312.15" font-family="Times,serif" font-size="14.00">Did your landlord provide you with one or more reasonable times for the inspection that was missed?</text>
</g>
<!-- /contest/14&#45;&gt;/contest/24 -->
<g id="edge2" class="edge">
<title>/contest/14&#45;&gt;/contest/24</title>
<path fill="none" stroke="black" d="M2307.8,-506.39C2426.06,-467.57 2650.87,-393.76 2774.83,-353.07"/>
<polygon fill="black" stroke="black" points="2776.26,-356.28 2784.67,-349.84 2774.08,-349.63 2776.26,-356.28"/>
<text text-anchor="middle" x="2754.81" y="-424.39" font-family="Times,serif" font-size="14.00">No, one or both of the inspections did not happen</text>
</g>
<!-- /contest/17 -->
<g id="node3" class="node">
<title>/contest/17</title>
<ellipse fill="none" stroke="black" cx="1835.31" cy="-323.35" rx="368.31" ry="26.74"/>
<text text-anchor="middle" x="1835.31" y="-327.15" font-family="Times,serif" font-size="14.00">/contest/17</text>
<text text-anchor="middle" x="1835.31" y="-312.15" font-family="Times,serif" font-size="14.00">Did you give your landlord a forwarding address where they can send your damage deposit?</text>
</g>
<!-- /contest/15&#45;&gt;/contest/17 -->
<g id="edge4" class="edge">
<title>/contest/15&#45;&gt;/contest/17</title>
<path fill="none" stroke="black" d="M1835.31,-401.16C1835.31,-388.88 1835.31,-373.99 1835.31,-360.6"/>
<polygon fill="black" stroke="black" points="1838.81,-360.27 1835.31,-350.27 1831.81,-360.27 1838.81,-360.27"/>
<text text-anchor="middle" x="1845.81" y="-372.02" font-family="Times,serif" font-size="14.00">Yes</text>
</g>
<!-- /contest/26 -->
<g id="node8" class="node">
<title>/contest/26</title>
<ellipse fill="none" stroke="black" cx="923.31" cy="-323.35" rx="289.83" ry="26.74"/>
<text text-anchor="middle" x="923.31" y="-327.15" font-family="Times,serif" font-size="14.00">/contest/26</text>
<text text-anchor="middle" x="923.31" y="-312.15" font-family="Times,serif" font-size="14.00">Do you disagree with your landlord&#39;s assessment of damage to the unit?</text>
</g>
<!-- /contest/15&#45;&gt;/contest/26 -->
<g id="edge3" class="edge">
<title>/contest/15&#45;&gt;/contest/26</title>
<path fill="none" stroke="black" d="M1652.67,-406.52C1496.11,-388.88 1271.4,-363.56 1112.87,-345.71"/>
<polygon fill="black" stroke="black" points="1112.86,-342.18 1102.53,-344.54 1112.07,-349.14 1112.86,-342.18"/>
<text text-anchor="middle" x="1441.81" y="-372.02" font-family="Times,serif" font-size="14.00">No</text>
</g>
<!-- /contest/19 -->
<g id="node5" class="node">
<title>/contest/19</title>
<ellipse fill="none" stroke="black" cx="2138.31" cy="-218.61" rx="378.1" ry="26.74"/>
<text text-anchor="middle" x="2138.31" y="-222.41" font-family="Times,serif" font-size="14.00">/contest/19</text>
<text text-anchor="middle" x="2138.31" y="-207.41" font-family="Times,serif" font-size="14.00">Have &#160;15 days passed since when your landlord would have received your forwarding address?</text>
</g>
<!-- /contest/17&#45;&gt;/contest/19 -->
<g id="edge6" class="edge">
<title>/contest/17&#45;&gt;/contest/19</title>
<path fill="none" stroke="black" d="M1910.21,-296.95C1953.72,-282.2 2008.67,-263.57 2053.73,-248.29"/>
<polygon fill="black" stroke="black" points="2055.14,-251.51 2063.48,-244.98 2052.89,-244.88 2055.14,-251.51"/>
<text text-anchor="middle" x="2014.81" y="-267.28" font-family="Times,serif" font-size="14.00">Yes</text>
</g>
<!-- /contest/20 -->
<g id="node6" class="node">
<title>/contest/20</title>
<ellipse fill="none" stroke="black" cx="1515.31" cy="-218.61" rx="226.96" ry="26.74"/>
<text text-anchor="middle" x="1515.31" y="-222.41" font-family="Times,serif" font-size="14.00">/contest/20</text>
<text text-anchor="middle" x="1515.31" y="-207.41" font-family="Times,serif" font-size="14.00">Has more than a year passed since your tenancy ended?</text>
</g>
<!-- /contest/17&#45;&gt;/contest/20 -->
<g id="edge5" class="edge">
<title>/contest/17&#45;&gt;/contest/20</title>
<path fill="none" stroke="black" d="M1756.62,-297.09C1709.34,-281.91 1649.17,-262.59 1600.73,-247.04"/>
<polygon fill="black" stroke="black" points="1601.8,-243.7 1591.21,-243.98 1599.66,-250.37 1601.8,-243.7"/>
<text text-anchor="middle" x="1702.81" y="-267.28" font-family="Times,serif" font-size="14.00">No</text>
</g>
<!-- /contest/18 -->
<g id="node4" class="node">
<title>/contest/18</title>
<ellipse fill="none" stroke="black" cx="1515.31" cy="-113.87" rx="204.21" ry="26.74"/>
<text text-anchor="middle" x="1515.31" y="-117.67" font-family="Times,serif" font-size="14.00">/contest/18</text>
<text text-anchor="middle" x="1515.31" y="-102.67" font-family="Times,serif" font-size="14.00">Do you have a mailing address for your landlord?</text>
</g>
<!-- /contest/fletter/mailing -->
<g id="node13" class="node">
<title>/contest/fletter/mailing</title>
<ellipse fill="none" stroke="black" cx="1393.31" cy="-18" rx="90.98" ry="18"/>
<text text-anchor="middle" x="1393.31" y="-14.3" font-family="Times,serif" font-size="14.00">/contest/fletter/mailing</text>
</g>
<!-- /contest/18&#45;&gt;/contest/fletter/mailing -->
<g id="edge7" class="edge">
<title>/contest/18&#45;&gt;/contest/fletter/mailing</title>
<path fill="none" stroke="black" d="M1417.56,-90.14C1408.54,-84.57 1400.49,-77.63 1394.31,-69 1389.67,-62.52 1388.23,-54.26 1388.29,-46.33"/>
<polygon fill="black" stroke="black" points="1391.78,-46.52 1389.09,-36.27 1384.8,-45.96 1391.78,-46.52"/>
<text text-anchor="middle" x="1504.81" y="-57.8" font-family="Times,serif" font-size="14.00">No, I should try and figure out what it is</text>
</g>
<!-- /contest/fletter/Sec_Forwarding -->
<g id="node14" class="node">
<title>/contest/fletter/Sec_Forwarding</title>
<ellipse fill="none" stroke="black" cx="1637.31" cy="-18" rx="121.58" ry="18"/>
<text text-anchor="middle" x="1637.31" y="-14.3" font-family="Times,serif" font-size="14.00">/contest/fletter/Sec_Forwarding</text>
</g>
<!-- /contest/18&#45;&gt;/contest/fletter/Sec_Forwarding -->
<g id="edge8" class="edge">
<title>/contest/18&#45;&gt;/contest/fletter/Sec_Forwarding</title>
<path fill="none" stroke="black" d="M1588.27,-88.68C1598.14,-83.27 1607.53,-76.77 1615.31,-69 1621.77,-62.54 1626.48,-53.87 1629.85,-45.56"/>
<polygon fill="black" stroke="black" points="1633.15,-46.72 1633.21,-36.12 1626.56,-44.37 1633.15,-46.72"/>
<text text-anchor="middle" x="1792.31" y="-57.8" font-family="Times,serif" font-size="14.00">Yes, I should write them a letter with my forwarding address</text>
</g>
<!-- /contest/fletter/sec_arb_insp_letter -->
<g id="node15" class="node">
<title>/contest/fletter/sec_arb_insp_letter</title>
<ellipse fill="none" stroke="black" cx="2606.31" cy="-113.87" rx="131.88" ry="18"/>
<text text-anchor="middle" x="2606.31" y="-110.17" font-family="Times,serif" font-size="14.00">/contest/fletter/sec_arb_insp_letter</text>
</g>
<!-- /contest/19&#45;&gt;/contest/fletter/sec_arb_insp_letter -->
<g id="edge9" class="edge">
<title>/contest/19&#45;&gt;/contest/fletter/sec_arb_insp_letter</title>
<path fill="none" stroke="black" d="M2250.7,-192.94C2337.02,-173.99 2453.91,-148.33 2529.71,-131.69"/>
<polygon fill="black" stroke="black" points="2530.65,-135.06 2539.67,-129.5 2529.15,-128.23 2530.65,-135.06"/>
<text text-anchor="middle" x="2410.81" y="-162.54" font-family="Times,serif" font-size="14.00">Yes</text>
</g>
<!-- /contest/20&#45;&gt;/contest/18 -->
<g id="edge10" class="edge">
<title>/contest/20&#45;&gt;/contest/18</title>
<path fill="none" stroke="black" d="M1515.31,-191.68C1515.31,-179.4 1515.31,-164.51 1515.31,-151.12"/>
<polygon fill="black" stroke="black" points="1518.81,-150.79 1515.31,-140.79 1511.81,-150.79 1518.81,-150.79"/>
<text text-anchor="middle" x="1548.81" y="-162.54" font-family="Times,serif" font-size="14.00">No, it hasn&#39;t</text>
</g>
<!-- /contest/40 -->
<g id="node10" class="node">
<title>/contest/40</title>
<ellipse fill="none" stroke="black" cx="3568.31" cy="-218.61" rx="359.83" ry="26.74"/>
<text text-anchor="middle" x="3568.31" y="-222.41" font-family="Times,serif" font-size="14.00">/contest/40</text>
<text text-anchor="middle" x="3568.31" y="-207.41" font-family="Times,serif" font-size="14.00">OK, if your LL did not give you an opportunity to inspect the unit they have to repay you.</text>
</g>
<!-- /contest/24&#45;&gt;/contest/40 -->
<g id="edge12" class="edge">
<title>/contest/24&#45;&gt;/contest/40</title>
<path fill="none" stroke="black" d="M3024.72,-298.72C3136.87,-282.39 3285.67,-260.74 3399.23,-244.21"/>
<polygon fill="black" stroke="black" points="3400.02,-247.64 3409.42,-242.73 3399.02,-240.71 3400.02,-247.64"/>
<text text-anchor="middle" x="3265.81" y="-267.28" font-family="Times,serif" font-size="14.00">No</text>
</g>
<!-- /contest/41 -->
<g id="node11" class="node">
<title>/contest/41</title>
<ellipse fill="none" stroke="black" cx="2862.31" cy="-218.61" rx="328.2" ry="26.74"/>
<text text-anchor="middle" x="2862.31" y="-222.41" font-family="Times,serif" font-size="14.00">/contest/41</text>
<text text-anchor="middle" x="2862.31" y="-207.41" font-family="Times,serif" font-size="14.00">If you or someone else misses both inspection chances you may lose your deposit</text>
</g>
<!-- /contest/24&#45;&gt;/contest/41 -->
<g id="edge11" class="edge">
<title>/contest/24&#45;&gt;/contest/41</title>
<path fill="none" stroke="black" d="M2862.31,-296.42C2862.31,-284.14 2862.31,-269.25 2862.31,-255.86"/>
<polygon fill="black" stroke="black" points="2865.81,-255.53 2862.31,-245.53 2858.81,-255.53 2865.81,-255.53"/>
<text text-anchor="middle" x="2872.81" y="-267.28" font-family="Times,serif" font-size="14.00">Yes</text>
</g>
<!-- /contest/27 -->
<g id="node9" class="node">
<title>/contest/27</title>
<ellipse fill="none" stroke="black" cx="279.31" cy="-218.61" rx="279.11" ry="26.74"/>
<text text-anchor="middle" x="279.31" y="-222.41" font-family="Times,serif" font-size="14.00">/contest/27</text>
<text text-anchor="middle" x="279.31" y="-207.41" font-family="Times,serif" font-size="14.00">Do you have any evidence or witnesses who can support your claim?</text>
</g>
<!-- /contest/26&#45;&gt;/contest/27 -->
<g id="edge13" class="edge">
<title>/contest/26&#45;&gt;/contest/27</title>
<path fill="none" stroke="black" d="M782.38,-299.87C677.93,-283.2 535.83,-260.53 429.29,-243.54"/>
<polygon fill="black" stroke="black" points="429.52,-240.03 419.09,-241.91 428.42,-246.94 429.52,-240.03"/>
<text text-anchor="middle" x="650.81" y="-267.28" font-family="Times,serif" font-size="14.00">Yes</text>
</g>
<!-- /contest/42 -->
<g id="node12" class="node">
<title>/contest/42</title>
<ellipse fill="none" stroke="black" cx="923.31" cy="-218.61" rx="347.38" ry="26.74"/>
<text text-anchor="middle" x="923.31" y="-222.41" font-family="Times,serif" font-size="14.00">/contest/42</text>
<text text-anchor="middle" x="923.31" y="-207.41" font-family="Times,serif" font-size="14.00">If you agree with your landlord&#39;s assessment they should keep all or part of the deposit</text>
</g>
<!-- /contest/26&#45;&gt;/contest/42 -->
<g id="edge14" class="edge">
<title>/contest/26&#45;&gt;/contest/42</title>
<path fill="none" stroke="black" d="M923.31,-296.42C923.31,-284.14 923.31,-269.25 923.31,-255.86"/>
<polygon fill="black" stroke="black" points="926.81,-255.53 923.31,-245.53 919.81,-255.53 926.81,-255.53"/>
<text text-anchor="middle" x="931.81" y="-267.28" font-family="Times,serif" font-size="14.00">No</text>
</g>
<!-- /contest/fletter/sec_dmg_disagree -->
<g id="node16" class="node">
<title>/contest/fletter/sec_dmg_disagree</title>
<ellipse fill="none" stroke="black" cx="279.31" cy="-113.87" rx="128.88" ry="18"/>
<text text-anchor="middle" x="279.31" y="-110.17" font-family="Times,serif" font-size="14.00">/contest/fletter/sec_dmg_disagree</text>
</g>
<!-- /contest/27&#45;&gt;/contest/fletter/sec_dmg_disagree -->
<g id="edge15" class="edge">
<title>/contest/27&#45;&gt;/contest/fletter/sec_dmg_disagree</title>
<path fill="none" stroke="black" d="M279.31,-191.68C279.31,-176.66 279.31,-157.76 279.31,-142.47"/>
<polygon fill="black" stroke="black" points="282.81,-142.07 279.31,-132.07 275.81,-142.07 282.81,-142.07"/>
<text text-anchor="middle" x="289.81" y="-162.54" font-family="Times,serif" font-size="14.00">Yes</text>
</g>
<!-- /contest/40&#45;&gt;/contest/fletter/sec_arb_insp_letter -->
<g id="edge17" class="edge">
<title>/contest/40&#45;&gt;/contest/fletter/sec_arb_insp_letter</title>
<path fill="none" stroke="black" d="M3368.4,-196.26C3170.84,-175.16 2875.82,-143.65 2717.02,-126.69"/>
<polygon fill="black" stroke="black" points="2717.08,-123.18 2706.76,-125.6 2716.33,-130.14 2717.08,-123.18"/>
<text text-anchor="middle" x="3316.31" y="-162.54" font-family="Times,serif" font-size="14.00">Next step: Write a letter telling your landlord about your rights</text>
</g>
<!-- /contest/fletter/sec_arb_insp_arb -->
<g id="node17" class="node">
<title>/contest/fletter/sec_arb_insp_arb</title>
<ellipse fill="none" stroke="black" cx="3568.31" cy="-113.87" rx="124.58" ry="18"/>
<text text-anchor="middle" x="3568.31" y="-110.17" font-family="Times,serif" font-size="14.00">/contest/fletter/sec_arb_insp_arb</text>
</g>
<!-- /contest/40&#45;&gt;/contest/fletter/sec_arb_insp_arb -->
<g id="edge16" class="edge">
<title>/contest/40&#45;&gt;/contest/fletter/sec_arb_insp_arb</title>
<path fill="none" stroke="black" d="M3568.31,-191.68C3568.31,-176.66 3568.31,-157.76 3568.31,-142.47"/>
<polygon fill="black" stroke="black" points="3571.81,-142.07 3568.31,-132.07 3564.81,-142.07 3571.81,-142.07"/>
<text text-anchor="middle" x="3673.81" y="-162.54" font-family="Times,serif" font-size="14.00">Next Step: File for Dispute Resolution</text>
</g>
<!-- /contest/fletter/../landing -->
<g id="node18" class="node">
<title>/contest/fletter/../landing</title>
<ellipse fill="none" stroke="black" cx="1127.31" cy="-113.87" rx="96.68" ry="18"/>
<text text-anchor="middle" x="1127.31" y="-110.17" font-family="Times,serif" font-size="14.00">/contest/fletter/../landing</text>
</g>
<!-- /contest/41&#45;&gt;/contest/fletter/../landing -->
<g id="edge18" class="edge">
<title>/contest/41&#45;&gt;/contest/fletter/../landing</title>
<path fill="none" stroke="black" d="M2721.05,-194.28C2635.69,-181.26 2524.55,-166.19 2425.31,-158.74 1927.53,-121.35 1799.83,-181.33 1302.31,-140.74 1270.13,-138.12 1234.87,-133.28 1204.49,-128.5"/>
<polygon fill="black" stroke="black" points="1204.81,-125.01 1194.38,-126.88 1203.7,-131.92 1204.81,-125.01"/>
<text text-anchor="middle" x="2599.31" y="-162.54" font-family="Times,serif" font-size="14.00">Next Steps</text>
</g>
<!-- /contest/42&#45;&gt;/contest/fletter/../landing -->
<g id="edge19" class="edge">
<title>/contest/42&#45;&gt;/contest/fletter/../landing</title>
<path fill="none" stroke="black" d="M974.26,-191.95C1008.85,-174.53 1053.98,-151.8 1086.26,-135.54"/>
<polygon fill="black" stroke="black" points="1088.06,-138.55 1095.42,-130.93 1084.91,-132.3 1088.06,-138.55"/>
<text text-anchor="middle" x="1068.31" y="-162.54" font-family="Times,serif" font-size="14.00">Next Steps</text>
</g>
</g>
</svg>
